<svg width="93" height="41" viewBox="0 0 93 41" fill="none" xmlns="http://www.w3.org/2000/svg">
<path d="M0.572266 31.6126V8.80252C0.572266 6.22165 1.36138 4.15138 2.93961 2.59171C4.51785 1.01348 6.57883 0.224365 9.12257 0.224365H27.6436V0.389258C27.6436 4.71276 24.1387 8.21765 19.8152 8.21765H15.1853H12.5483C10.2645 8.21765 9.12257 9.35954 9.12257 11.6433V28.7439C9.12257 31.0277 10.2645 32.1696 12.5483 32.1696H22.0358C26.4504 32.1696 30.0291 35.7484 30.0291 40.1629H9.12257C6.57883 40.1629 4.51785 39.3831 2.93961 37.8234C1.36138 36.2638 0.572266 34.1935 0.572266 31.6126Z" fill="#F6F6F6"/>
<path d="M30.6216 40.1629C30.6216 35.7484 34.2003 32.1696 38.6148 32.1696H49.3675C50.2402 32.1696 50.9272 31.9097 51.4285 31.3898C51.9484 30.8514 52.2083 30.1644 52.2083 29.3288V27.9084C52.2083 26.0145 51.2614 24.8726 49.3675 24.4827L39.6474 22.4774C37.3265 22.0133 35.4605 20.992 34.0494 19.4138C32.6568 17.817 31.9605 15.8953 31.9605 13.6486V8.80252C31.9605 6.22165 32.7403 4.15138 34.3 2.59171C35.8597 1.01348 37.93 0.224365 40.5108 0.224365H92.2902C92.2902 4.65657 88.6887 8.24509 84.2565 8.22915L81.0603 8.21765H43.3795C42.544 8.21765 41.857 8.48687 41.3185 9.02533C40.78 9.54522 40.5108 10.2322 40.5108 11.0863V11.6433C40.5108 13.5372 41.467 14.6791 43.3795 15.069L53.0717 17.0743C55.3926 17.5385 57.2494 18.569 58.6419 20.1658C60.053 21.744 60.7586 23.6565 60.7586 25.9031V31.6126C60.7586 34.1935 59.9695 36.2638 58.3913 37.8234C56.813 39.3831 54.752 40.1629 52.2083 40.1629H30.6216Z" fill="#F6F6F6"/>
<path d="M76.5102 40.1629C70.9641 40.1629 66.4681 35.6669 66.4681 30.1208V0.224365H92.2902C92.2902 4.65657 88.6887 8.24509 84.2565 8.22915L81.0603 8.21765H75.0184V16.2109H86.7159V23.8978H75.0184V32.1696H92.4254V40.1629H76.5102Z" fill="#F6F6F6"/>
</svg>
